<?xml version="1.0"?>
<svg xmlns="http://www.w3.org/2000/svg" viewBox="0 0 24 24">
    <path d="M 9 6 C 7.895 6 7 6.895 7 8 L 7 10 L 16 10 L 15.5 9 L 21 9 L 21 7 L 14.46875 7 C 14.11175 6.389 13.464 6 12.75 6 L 9 6 z M 5 11 C 4 11 2.59375 12.59375 2.59375 12.59375 C 1.98475 13.20375 1.83275 14.13525 2.21875 14.90625 L 4.625 17.875 C 5.198 18.592 6.083 19 7 19 L 17 19 C 17.917 19 18.83425 18.593 19.40625 17.875 L 21.8125 14.90625 C 22.1985 14.13525 22.0465 13.20275 21.4375 12.59375 C 21.4375 12.59375 20 11 19 11 L 5 11 z M 4.03125 14 L 7 14 L 10 14 L 14 14 L 17 14 L 20 14 L 17.84375 16.625 C 17.65175 16.864 17.306 17 17 17 L 7 17 C 6.694 17 6.3785 16.864 6.1875 16.625 L 4.03125 14 z M 17 14 C 16.447716 14 16 14.447715 16 15 C 16 15.552285 16.447716 16 17 16 C 17.552285 16 18 15.552285 18 15 C 18 14.447715 17.552285 14 17 14 z M 14 14 C 13.447715 14 13 14.447715 13 15 C 13 15.552285 13.447715 16 14 16 C 14.552284 16 15 15.552285 15 15 C 15 14.447715 14.552284 14 14 14 z M 10 14 C 9.4477148 14 9 14.447715 9 15 C 9 15.552285 9.4477148 16 10 16 C 10.552284 16 11 15.552285 11 15 C 11 14.447715 10.552284 14 10 14 z M 7 14 C 6.4477153 14 6 14.447715 6 15 C 6 15.552285 6.4477153 16 7 16 C 7.5522848 16 8 15.552285 8 15 C 8 14.447715 7.5522848 14 7 14 z"/>
</svg>
