<?xml version="1.0"?>
<svg xmlns="http://www.w3.org/2000/svg" viewBox="0 0 24 24">
    <path d="M 11 3 L 11 6 L 10 6 C 9.448 6 9 6.448 9 7 L 9 8 L 7 8 C 6.448 8 6 8.448 6 9 L 4 9 L 4 11 L 6 11 L 6 12 L 10 12 L 15 12 L 17 12 L 17 11.6875 L 20.40625 11 L 20 9.03125 L 16.90625 9.65625 C 16.761432 9.2823601 16.424824 9 16 9 L 15 9 L 15 7 C 15 6.448 14.552 6 14 6 L 13 6 L 13 3 L 11 3 z M 2 13 L 3.6875 18.875 C 3.9825 18.943 4.263 19 4.5 19 C 5.194 19 6.261 18.754 7 18 C 7.739 18.754 8.806 19 9.5 19 C 10.194 19 11.261 18.754 12 18 C 12.739 18.754 13.806 19 14.5 19 C 15.194 19 16.261 18.754 17 18 C 17.739 18.754 18.806 19 19.5 19 C 19.737 19 20.0175 18.943 20.3125 18.875 L 22 13 L 2 13 z M 17 15 L 20 15 L 20 16 L 17 16 L 17 15 z M 2 19 L 2 21 C 2.739 21.754 3.806 22 4.5 22 C 5.194 22 6.261 21.754 7 21 C 7.739 21.754 8.806 22 9.5 22 C 10.194 22 11.261 21.754 12 21 C 12.739 21.754 13.806 22 14.5 22 C 15.194 22 16.261 21.754 17 21 C 17.739 21.754 18.806 22 19.5 22 C 20.194 22 21.261 21.754 22 21 L 22 19 C 21.261 19.754 20.194 20 19.5 20 C 18.806 20 17.739 19.754 17 19 C 16.261 19.754 15.194 20 14.5 20 C 13.806 20 12.739 19.754 12 19 C 11.261 19.754 10.194 20 9.5 20 C 8.806 20 7.739 19.754 7 19 C 6.261 19.754 5.194 20 4.5 20 C 3.806 20 2.739 19.754 2 19 z"/>
</svg>
